<?xml version="1.0" standalone="no"?><!DOCTYPE svg PUBLIC "-//W3C//DTD SVG 1.1//EN" "http://www.w3.org/Graphics/SVG/1.1/DTD/svg11.dtd"><svg t="1631153121184" class="icon" viewBox="0 0 1024 1024" version="1.1" xmlns="http://www.w3.org/2000/svg" p-id="6738" xmlns:xlink="http://www.w3.org/1999/xlink" width="128" height="128"><defs><style type="text/css"></style></defs><path d="M446.064 497.936A47.84 47.84 0 0 0 480 512c13.264 0 25.248-5.376 33.936-14.064l128-128a48 48 0 1 0-67.872-67.872L480 396.112l-30.064-30.064a48 48 0 0 0-67.872 67.888l64 64zM960 64H64a48 48 0 0 0-48 48v640a48 48 0 0 0 48 48h304v80l-64 64v16h416v-16l-64-64v-80h304a48 48 0 0 0 48-48V112a48 48 0 0 0-48-48z m-16 608H80V128h864v544z" fill="" p-id="6739"></path></svg>