<?xml version="1.0" standalone="no"?><!DOCTYPE svg PUBLIC "-//W3C//DTD SVG 1.1//EN" "http://www.w3.org/Graphics/SVG/1.1/DTD/svg11.dtd"><svg t="1631071555970" class="icon" viewBox="0 0 1024 1024" version="1.1" xmlns="http://www.w3.org/2000/svg" p-id="2658" width="128" height="128" xmlns:xlink="http://www.w3.org/1999/xlink"><defs><style type="text/css"></style></defs><path d="M1016.815716 431.057063l-4.310571-26.821329-82.379794-27.30028a435.367633 435.367633 0 0 0-26.821329-64.65856l38.795136-77.590271-15.805426-22.031805A526.847521 526.847521 0 0 0 811.345182 95.790458l-22.031805-15.805425-77.590271 38.795135a439.678204 439.678204 0 0 0-64.65856-26.821328L619.764266 11.015903l-26.821329-3.831619A506.731525 506.731525 0 0 0 512 0 508.647334 508.647334 0 0 0 431.057063 7.184284l-27.300281 4.310571L376.456501 95.790458a455.004677 455.004677 0 0 0-64.658559 26.821329L234.207671 81.42189l-22.031806 14.368568A514.394761 514.394761 0 0 0 95.790458 212.175865l-15.805425 22.031806 38.795135 77.590271A443.988775 443.988775 0 0 0 95.790458 376.456501l-84.774555 27.300281L7.184284 431.057063A516.310571 516.310571 0 0 0 0 512a511.521048 511.521048 0 0 0 7.184284 80.942937l4.310571 26.821329 84.295603 27.779233a433.930776 433.930776 0 0 0 26.821329 64.658559l-38.795136 77.111319 15.805426 22.031805a504.815716 504.815716 0 0 0 52.2058 62.263798 521.100094 521.100094 0 0 0 62.263797 52.684752l22.031806 15.805426 77.590271-38.795136a431.057063 431.057063 0 0 0 64.65856 26.821329l27.30028 82.379794 26.821329 4.310571a510.084191 510.084191 0 0 0 80.942937 7.184284 512.478952 512.478952 0 0 0 80.942937-7.184284l26.821329-4.310571 27.30028-82.379794a469.852198 469.852198 0 0 0 64.65856-26.821329l77.590271 38.795136 22.031805-15.805426a476.078578 476.078578 0 0 0 62.263798-52.684752A517.747428 517.747428 0 0 0 926.293732 814.218896l15.805426-22.031805-38.795136-77.590272a431.057063 431.057063 0 0 0 26.821329-64.658559l82.379794-27.300281 4.310571-26.821328a511.521048 511.521048 0 0 0 7.184284-80.942937A454.525725 454.525725 0 0 0 1016.815716 431.057063z m-504.815716 276.355472a195.412535 195.412535 0 1 1 195.891487-195.412535 195.891487 195.891487 0 0 1-195.891487 195.412535z" fill="#2c2c2c" p-id="2659"></path><path d="M512 397.05145a114.94855 114.94855 0 1 0 80.942937 33.52666 113.990645 113.990645 0 0 0-80.942937-33.52666z" fill="#2c2c2c" p-id="2660"></path></svg>